<svg xmlns="http://www.w3.org/2000/svg" viewBox="0 0 512 512"><title>CapCut</title><defs><style>.cls-1{fill:#000;}</style></defs><path class="cls-1" d="M416 64h-16a16 16 0 0 0-16 16v32a16 16 0 0 0 16 16h16a16 16 0 0 0 16-16V80a16 16 0 0 0-16-16zm-64 0h-16a16 16 0 0 0-16 16v32a16 16 0 0 0 16 16h16a16 16 0 0 0 16-16V80a16 16 0 0 0-16-16zm-64 0h-16a16 16 0 0 0-16 16v32a16 16 0 0 0 16 16h16a16 16 0 0 0 16-16V80a16 16 0 0 0-16-16zm-64 0h-16a16 16 0 0 0-16 16v32a16 16 0 0 0 16 16h16a16 16 0 0 0 16-16V80a16 16 0 0 0-16-16zm-64 0H96a16 16 0 0 0-16 16v32a16 16 0 0 0 16 16h16a16 16 0 0 0 16-16V80a16 16 0 0 0-16-16zM64 160v224a32 32 0 0 0 32 32h320a32 32 0 0 0 32-32V160H64zm96 160l144-80-144-80v160z"/></svg>
